<svg width="91" height="99" viewBox="0 0 91 99" fill="none" xmlns="http://www.w3.org/2000/svg">
<path fill-rule="evenodd" clip-rule="evenodd" d="M89.8991 3.31432L89.8991 3.31432C89.8371 3.26446 89.7724 3.21248 89.7044 3.15692C90.0331 2.54226 90.0285 2.37312 89.5632 2.03685L89.5333 2.0152C89.3094 1.85282 89.0715 1.68032 88.7406 1.70862C88.5802 1.72247 88.4174 1.70697 88.2544 1.69145C88.099 1.67666 87.9434 1.66184 87.7894 1.67242C87.1544 1.7165 86.5392 1.83996 86.0535 2.30755C85.8976 2.45786 85.7342 2.60044 85.5649 2.74814L85.5648 2.74821C85.4866 2.81645 85.4072 2.88579 85.3266 2.95748L85.3123 3.21753C85.3105 3.2489 85.3091 3.28031 85.3077 3.31172L85.3077 3.31174L85.3077 3.31176L85.3077 3.31178L85.3077 3.31181L85.3077 3.31183L85.3077 3.31185L85.3077 3.31187L85.3077 3.31189L85.3077 3.31191L85.3077 3.31194L85.3077 3.31196L85.3077 3.31198L85.3077 3.312L85.3077 3.31202L85.3077 3.31204L85.3077 3.31207L85.3077 3.31209L85.3077 3.31211L85.3077 3.31213L85.3077 3.31215L85.3077 3.31218L85.3077 3.3122L85.3077 3.31225L85.3077 3.31227L85.3077 3.31228L85.3077 3.3123L85.3077 3.31231L85.3077 3.31233L85.3077 3.31234L85.3077 3.31236L85.3077 3.31237L85.3077 3.31239L85.3077 3.3124L85.3077 3.31242L85.3077 3.31243L85.3076 3.31245L85.3076 3.31246L85.3076 3.31248L85.3076 3.3125L85.3076 3.31251L85.3076 3.31253L85.3076 3.31254L85.3076 3.31256L85.3076 3.31257C85.3048 3.37561 85.3019 3.43868 85.2966 3.50153C85.2554 3.99217 85.2539 3.99257 84.6566 4.15598L84.6427 4.15978C84.5867 4.17503 84.5304 4.20572 84.4751 4.23583C84.3915 4.28139 84.3103 4.32564 84.2364 4.31311C83.7987 4.23842 83.562 4.48017 83.3355 4.78007L84.4102 5.17374L84.3747 5.31158L83.3171 5.2533C83.1311 5.89985 83.5603 5.98805 83.9607 6.07033C83.9856 6.07544 84.0103 6.08053 84.0348 6.08573C83.8351 6.46989 83.7889 6.7729 84.167 6.98448C84.4711 7.15469 84.3296 7.27771 84.1853 7.40314L84.1853 7.40316C84.1654 7.4204 84.1455 7.43768 84.1268 7.45514C84.6904 7.87156 85.3808 8.08302 86.0823 8.05412C86.6272 8.05321 87.172 8.08965 87.7169 8.1261L87.7169 8.1261L87.7169 8.1261L87.7169 8.1261L87.7169 8.1261L87.7169 8.1261L87.717 8.1261L87.717 8.1261L87.717 8.1261L87.717 8.1261L87.717 8.1261L87.717 8.1261L87.717 8.1261L87.717 8.1261L87.717 8.1261L87.7171 8.12611L87.7171 8.12611L87.7171 8.12611L87.7171 8.12611L87.7171 8.12611L87.7171 8.12611L87.7171 8.12611L87.7171 8.12611C87.9977 8.14488 88.2784 8.16364 88.559 8.17732C88.7229 8.17779 88.8866 8.17 89.0497 8.15398L89.0507 8.05642L88.138 7.91417C88.378 7.82082 88.6373 7.78693 88.8935 7.81542C89.1394 7.82382 89.3857 7.81336 89.63 7.78415C89.8524 7.73452 90.0712 7.66966 90.2846 7.59003L89.8521 7.41372C90.4599 7.12279 90.4597 7.12193 90.347 6.51521L90.3461 6.51041C90.3308 6.42738 90.3087 6.29437 90.3498 6.2611C90.5778 6.07999 90.5366 5.94514 90.3882 5.71459C90.3535 5.66067 90.4018 5.5638 90.455 5.45709C90.5041 5.3587 90.5573 5.25195 90.5535 5.16277C90.5313 4.92927 90.4576 4.70348 90.3375 4.50149C90.2642 4.36725 90.3275 4.26499 90.3892 4.1654C90.4461 4.07354 90.5016 3.98394 90.4472 3.87358C90.4124 3.79011 90.3625 3.7137 90.2999 3.64816C90.1753 3.53621 90.0445 3.43111 89.8991 3.31432ZM80.1749 20.7492C80.1461 20.6374 80.2265 20.4976 80.3843 20.2231C80.3068 20.1639 80.2457 20.0874 80.1841 20.0103L80.1841 20.0103L80.1841 20.0102C80.0527 19.8457 79.9188 19.678 79.617 19.6664C79.2206 19.6449 78.8308 19.7724 78.5248 20.0235C78.4893 20.0513 78.4509 20.0786 78.4121 20.1062C78.2879 20.1946 78.1597 20.2858 78.1091 20.4061C77.9605 20.7585 77.6831 20.9792 77.4063 21.1994C77.2718 21.3064 77.1374 21.4133 77.018 21.5352C76.5947 21.9667 76.0078 22.0892 75.4511 22.099C74.0996 22.1228 73.0065 22.7719 71.9142 23.4206L71.8259 23.4731C71.4725 23.6834 71.3901 24.0679 71.3065 24.4583C71.2922 24.525 71.2779 24.5918 71.2622 24.658L71.2545 24.6904C71.084 25.4082 71.044 25.5769 71.557 25.8824L71.6134 25.9157C71.9365 26.1064 72.147 26.2305 71.777 26.6057C71.7487 26.6336 71.819 26.7666 71.8734 26.8695C71.883 26.8877 71.8921 26.9049 71.9001 26.9204C71.9217 26.9622 71.9595 27.0127 71.9941 27.059C72.0407 27.1213 72.0816 27.1759 72.0695 27.1914C71.7687 27.5639 72.1347 27.614 72.318 27.6391L72.3272 27.6404C72.3893 27.6489 72.4518 27.658 72.5147 27.6672L72.5147 27.6672C72.9292 27.7275 73.3582 27.7899 73.7483 27.706C73.8857 27.6763 74.0293 27.66 74.1736 27.6436C74.5348 27.6026 74.9007 27.5609 75.1872 27.3083C75.3605 27.1266 75.6122 27.0407 75.8614 27.0782C75.9797 27.0733 76.0941 27.0347 76.1911 26.9671C76.2599 26.9301 76.3289 26.8934 76.3979 26.8567C76.6974 26.6974 76.9972 26.538 77.2808 26.3543C77.471 26.231 77.6527 26.0945 77.8343 25.9581L77.8343 25.9581L77.8343 25.9581L77.8343 25.9581L77.8344 25.9581L77.8344 25.9581L77.8344 25.958L77.8344 25.958L77.8344 25.958L77.8344 25.958L77.8344 25.958L77.8345 25.958L77.8345 25.958L77.8345 25.958L77.8345 25.958L77.8345 25.9579L77.8345 25.9579L77.8345 25.9579L77.8346 25.9579L77.8346 25.9579L77.8346 25.9579L77.8346 25.9579L77.8346 25.9579L77.8346 25.9579L77.8347 25.9578L77.8347 25.9578C78.0205 25.8183 78.2062 25.6787 78.4011 25.5533C78.6763 25.376 78.9358 25.1747 79.1918 24.9761L79.1918 24.976L79.1919 24.976L79.1919 24.976L79.1919 24.976L79.1919 24.976L79.192 24.9759L79.192 24.9759C79.2428 24.9365 79.2936 24.8971 79.3442 24.8581C79.4023 24.8134 79.4616 24.7693 79.5212 24.7251L79.5213 24.725L79.5214 24.7249C79.9246 24.4253 80.3406 24.1163 80.4511 23.5491C80.5495 23.1476 80.6697 22.7518 80.8111 22.3633C80.6018 22.1344 80.6309 21.8742 80.6599 21.615C80.6785 21.4486 80.6971 21.2826 80.6524 21.1257C80.3521 20.9509 80.2047 20.8652 80.1749 20.7492ZM14.0699 87.45C14.8936 87.6256 15.6166 87.9702 16.0902 88.6453C16.2369 88.6356 16.371 88.6245 16.4967 88.6141C16.7477 88.5933 16.965 88.5754 17.1813 88.5768C17.6068 88.5809 18.0449 88.489 18.173 88.0884C18.3259 87.6105 18.5304 87.3318 19.0513 87.3381C19.1114 87.3312 19.1651 87.2972 19.1968 87.246C19.429 86.7859 19.8159 86.48 20.2026 86.1742L20.2026 86.1742L20.2027 86.1741L20.2027 86.1741L20.2028 86.1741L20.2028 86.174L20.2029 86.174L20.2029 86.1739L20.203 86.1739L20.203 86.1738L20.2031 86.1738L20.2031 86.1738L20.2032 86.1737L20.2032 86.1737L20.2033 86.1736L20.2033 86.1736L20.2034 86.1735L20.2034 86.1735L20.2035 86.1735L20.2035 86.1734L20.2036 86.1734L20.2036 86.1733L20.2037 86.1733L20.2037 86.1732L20.2037 86.1732C20.4051 86.014 20.6064 85.8549 20.7857 85.674L20.8566 85.6027C21.2602 85.1981 21.2818 85.1764 21.2698 84.412C21.2673 84.2585 21.2531 84.1051 21.2368 83.9289L21.2367 83.9288C21.2287 83.8415 21.22 83.7487 21.2121 83.6474C21.6179 83.3341 22.0434 83.0466 22.4858 82.7867C22.6115 82.7206 22.7261 82.6307 22.8408 82.5406C23.0822 82.351 23.3246 82.1608 23.6746 82.1905C23.7285 81.9067 23.9402 81.7551 24.1322 81.6175L24.1323 81.6175C24.2572 81.5279 24.3739 81.4444 24.4333 81.3342L24.2938 80.3607L23.765 80.3315L23.9063 80.1858L23.9554 80.1354L23.7401 79.7643C22.2804 80.3433 20.8793 81.0587 19.5558 81.9009C19.3591 82.0404 19.0974 82.0495 18.8913 81.9238C19.1013 81.7979 19.3042 81.6719 19.5034 81.5482L19.5036 81.548C19.9423 81.2755 20.3629 81.0142 20.8026 80.7899C21.3658 80.5027 21.9453 80.2466 22.5259 79.99L22.5263 79.9898L22.5267 79.9895C22.7772 79.8789 23.0278 79.7681 23.2774 79.6547C22.9422 79.1244 22.9405 79.1251 22.4753 79.2971L22.4545 79.3048C21.0992 79.8059 19.8346 80.495 18.5737 81.1822L18.5697 81.1844L18.5632 81.1879L18.2255 81.3718C18.1496 81.4131 18.0737 81.4542 17.9978 81.4952C16.5729 82.2656 15.1723 83.0955 14.012 84.269C13.7853 84.4982 13.6236 84.7575 13.4621 85.0162L13.4621 85.0163C13.3886 85.134 13.3152 85.2516 13.2358 85.3663C13.1561 85.5225 13.1613 85.7083 13.2495 85.86C13.4195 86.0444 13.4507 86.2409 13.4841 86.4521C13.4927 86.5059 13.5013 86.5607 13.5125 86.6164L13.5216 86.6632L13.5278 86.6959L13.5279 86.6963L13.5281 86.6973C13.5854 87.0011 13.6534 87.3611 14.0699 87.45ZM40.8386 79.729C40.9982 79.587 41.1563 79.4526 41.311 79.3212L41.3111 79.3211C41.6396 79.0421 41.9526 78.7762 42.2307 78.478C43.1804 77.4599 44.4042 76.9121 45.6278 76.3644C45.9158 76.2355 46.2037 76.1066 46.488 75.9716C47.0532 75.7035 47.6571 75.7616 48.254 75.8191C48.3655 75.8298 48.4767 75.8405 48.5874 75.8491C48.6702 75.8554 48.7472 75.938 48.8266 76.0232L48.8267 76.0232C48.8641 76.0634 48.9022 76.1042 48.9416 76.1379L48.9398 76.1386L48.9271 76.1442L48.9206 76.147L48.9032 76.1546L48.89 76.1603L48.884 76.1629C48.6304 76.2732 48.3841 76.3803 48.0358 76.5323L49.3393 76.6041C49.3776 76.6931 49.4098 76.7815 49.441 76.8669C49.509 77.0533 49.5718 77.2256 49.6815 77.3597C49.8343 77.5648 49.8639 77.8358 49.7587 78.0685C49.7062 78.2366 49.5854 78.3837 49.459 78.5376C49.4028 78.606 49.3455 78.6758 49.2926 78.7494C48.6164 78.5663 48.0288 78.8026 47.4137 79.1012C47.4369 79.2093 47.4219 79.3222 47.4067 79.4371C47.3795 79.6423 47.3514 79.8537 47.538 80.055C47.597 80.168 47.5956 80.3028 47.5343 80.4146C47.4208 80.5805 47.3185 80.7563 47.216 80.9323L47.216 80.9323L47.2159 80.9324L47.2159 80.9325L47.2158 80.9326L47.2158 80.9327L47.2157 80.9328L47.2157 80.9329L47.2156 80.933L47.2156 80.9331L47.2155 80.9331L47.2155 80.9332L47.2154 80.9333L47.2154 80.9334L47.2153 80.9335L47.2153 80.9336L47.2152 80.9337L47.2152 80.9338L47.2151 80.9339L47.2151 80.9339L47.215 80.934L47.215 80.9341L47.2149 80.9342L47.2149 80.9343C46.8835 81.5036 46.5514 82.0739 45.8455 82.3165L45.7975 82.3328C45.6399 82.386 45.4566 82.4478 45.3843 82.5644C45.3337 82.646 45.2461 82.6581 45.159 82.6702C45.0386 82.6869 44.9193 82.7035 44.9006 82.9031C44.8829 83.0915 44.7526 83.0669 44.62 83.042C44.5535 83.0295 44.4864 83.0169 44.4327 83.031C44.2369 83.0954 44.0367 83.1457 43.8337 83.1817C43.6434 83.1891 43.4528 83.1808 43.2639 83.1569C42.6673 82.4233 41.8998 81.8453 41.0278 81.4731L40.8386 79.729ZM78.9298 57.7954L78.9297 57.7952L78.9296 57.7951L78.9296 57.7951C78.7326 57.4726 78.5388 57.1551 78.3621 56.8286C78.3478 56.8023 78.4075 56.7362 78.4828 56.6526L78.4828 56.6526C78.5228 56.6083 78.5672 56.559 78.6073 56.5083C78.4556 56.4257 78.3103 56.3321 78.1726 56.2282C78.0368 56.0948 77.9079 55.9547 77.7865 55.8082L77.7516 55.7708C77.4997 55.5013 77.2498 55.234 77.6725 54.8794C77.6932 54.862 77.6909 54.8198 77.6886 54.7755C77.6871 54.7478 77.6856 54.7194 77.6895 54.6957C77.7079 54.584 77.7161 54.4732 77.7242 54.3629C77.748 54.0376 77.7715 53.7177 78.0582 53.3993C78.1807 53.2632 78.2901 53.1107 78.4008 52.9565C78.5693 52.7217 78.7408 52.4827 78.9662 52.2909C79.2976 51.9706 79.6735 51.6992 80.0824 51.4848C80.7506 51.1813 81.411 50.8823 82.1667 51.0449C82.3809 51.1248 82.5848 51.2299 82.774 51.358L82.256 51.9199C82.3952 51.9701 82.5416 52.0066 82.6895 52.0436C83.0801 52.1411 83.4816 52.2413 83.7921 52.6041L83.3159 53.17L84.0116 53.2084C84.0344 53.4047 84.0681 53.5962 84.1014 53.7857C84.1747 54.203 84.2463 54.6104 84.1966 55.0388C84.1722 55.3695 84.0288 55.6804 83.7928 55.9146C83.6915 56.009 83.5991 56.1113 83.5064 56.2139C83.3275 56.4121 83.1478 56.6112 82.9017 56.7549C82.731 56.8541 82.5729 56.9748 82.4132 57.0966C82.2573 57.2156 82.0999 57.3357 81.928 57.4381C81.5705 57.6504 81.1816 57.7653 80.7934 57.88L80.7933 57.88C80.5609 57.9487 80.3286 58.0173 80.1034 58.1068C79.9058 58.1855 79.6617 58.1485 79.42 58.1119C79.311 58.0954 79.2025 58.079 79.099 58.0733C79.0426 57.98 78.9861 57.8875 78.9298 57.7954ZM61.0126 16.7709L63.0611 16.8838L63.1126 16.7113C62.9682 16.6609 62.8217 16.5944 62.6752 16.5278L62.6751 16.5278L62.6751 16.5278L62.6751 16.5278L62.6751 16.5278L62.6751 16.5278L62.6751 16.5278L62.675 16.5278L62.675 16.5278L62.675 16.5278L62.675 16.5278L62.675 16.5277L62.675 16.5277L62.6749 16.5277L62.6749 16.5277L62.6749 16.5277L62.6749 16.5277L62.6749 16.5277L62.6749 16.5277L62.6748 16.5277L62.6748 16.5277C62.342 16.3765 62.009 16.2253 61.6997 16.2625C61.5707 16.2783 61.439 16.2879 61.306 16.2976C60.8836 16.3283 60.4488 16.3599 60.0509 16.5945C59.8163 16.7329 59.5614 16.8396 59.3067 16.9463L59.3066 16.9463L59.3066 16.9463L59.3066 16.9463L59.3066 16.9463L59.3065 16.9463L59.3065 16.9463L59.3065 16.9463L59.3065 16.9464L59.3064 16.9464L59.3064 16.9464L59.3064 16.9464L59.3064 16.9464L59.3064 16.9464L59.3063 16.9464L59.3063 16.9464L59.3063 16.9464L59.3063 16.9464L59.3062 16.9465L59.3062 16.9465L59.3062 16.9465C58.7155 17.1938 58.1257 17.4408 57.7931 18.0793C57.3226 18.1653 57.1392 18.5295 56.9631 18.8792L56.9631 18.8793L56.963 18.8795C56.9157 18.9733 56.869 19.0662 56.8173 19.1523C56.4829 19.7098 56.1545 20.3081 56.5554 21.0069C56.8222 21.4718 57.0671 21.9491 57.3094 22.4215L57.3095 22.4217C57.4154 22.6281 57.5208 22.8336 57.6274 23.0367C57.9295 23.0329 58.2315 23.0522 58.5307 23.0943C59.1205 23.2244 59.6401 22.9836 60.0636 22.6907C60.311 22.5193 60.6097 22.4364 60.9107 22.4556C61.209 22.3192 61.3973 22.1033 61.5801 21.8938C61.7415 21.7088 61.8986 21.5287 62.1232 21.4129C62.3424 21.2563 62.4779 21.0091 62.4914 20.741C62.4913 20.5844 62.5165 20.4262 62.5419 20.2674C62.5992 19.9079 62.6571 19.5452 62.4229 19.1892C62.3871 19.1348 62.4334 19.0324 62.4833 18.9222C62.5177 18.8461 62.5539 18.7662 62.5658 18.6959C62.5751 18.6414 62.5479 18.5808 62.5119 18.5005C62.4928 18.4578 62.4712 18.4096 62.4512 18.3538C62.6383 18.3898 62.8299 18.3959 63.0188 18.3716C63.1734 18.3248 63.4133 18.1541 63.4043 18.056C63.363 17.7667 63.2773 17.4855 63.1501 17.222C63.0646 17.0223 62.8868 17.0266 62.714 17.0308L62.714 17.0308L62.714 17.0308L62.714 17.0308L62.7139 17.0308L62.7139 17.0308L62.7139 17.0308C62.6627 17.0321 62.6119 17.0333 62.5641 17.0292C62.4704 17.021 62.3764 17.0145 62.2824 17.008L62.2822 17.008L62.282 17.008L62.2818 17.008L62.2816 17.008L62.2814 17.008L62.2812 17.0079L62.281 17.0079L62.2808 17.0079L62.2806 17.0079L62.2804 17.0079L62.2802 17.0079L62.28 17.0078L62.2798 17.0078L62.2795 17.0078L62.2793 17.0078L62.2791 17.0078L62.2789 17.0077L62.2787 17.0077L62.2785 17.0077L62.2783 17.0077C61.8531 16.9782 61.4269 16.9486 61.0126 16.7709ZM51.7188 34.674L53.098 33.4466C53.4535 33.4473 53.8084 33.4725 54.1604 33.5221C54.2965 33.5482 54.4228 33.7513 54.4952 33.9019C54.5144 33.9416 54.4541 34.0193 54.3939 34.0967C54.3677 34.1304 54.3415 34.1641 54.322 34.1946C54.3608 34.2169 54.4018 34.2381 54.4432 34.2595C54.6855 34.3847 54.9393 34.5158 54.8397 34.9094C54.8095 34.9976 54.8135 35.0938 54.8508 35.1793C55.0266 35.4221 55.2058 35.6852 55.1062 35.9774C55.0723 36.077 55.0406 36.1788 55.0087 36.2812L55.0086 36.2815L55.0085 36.2819C54.8725 36.7182 54.7335 37.1642 54.416 37.4836C53.6402 38.2632 52.8035 38.9986 51.7259 39.3487C51.0854 39.5692 50.425 39.7277 49.7537 39.822C49.4015 39.8697 49.0528 39.7126 48.8566 39.4178C48.7216 39.2019 48.5819 38.9887 48.4423 38.7756L48.4422 38.7754C48.2197 38.4358 47.9972 38.0963 47.794 37.7458C47.6736 37.5398 47.6206 37.3018 47.6421 37.0646C47.8382 35.6924 48.5451 34.7457 50.1346 34.4249C50.2102 34.4096 50.2873 34.3855 50.3641 34.3614L50.3642 34.3614L50.3643 34.3614L50.3643 34.3614L50.3644 34.3614L50.3644 34.3614L50.3645 34.3614L50.3645 34.3614L50.3645 34.3613L50.3646 34.3613C50.5232 34.3117 50.6809 34.2624 50.8235 34.291C51.135 34.386 51.4352 34.5144 51.7188 34.674ZM17.6758 35.0581L17.0953 35.139C17.3927 35.2901 17.6493 35.354 17.9574 35.1431C18.1543 35.0086 18.3769 34.9223 18.6013 34.8354C18.9037 34.7182 19.2093 34.5999 19.4594 34.3602C19.6022 34.2004 19.7633 34.0578 19.9395 33.9353C21.0971 33.3208 21.7867 32.3219 22.3547 31.2075L22.3773 31.1639C22.4438 31.0361 22.5328 30.8654 22.4887 30.8048C22.3473 30.6114 22.413 30.4638 22.4827 30.3072C22.4993 30.2698 22.5162 30.2319 22.5305 30.1927C22.5719 30.079 22.6074 29.8943 22.5476 29.8252C22.3459 29.5919 22.2542 29.3181 22.1617 29.0421L22.1616 29.0418L22.1615 29.0416C22.1509 29.0098 22.1402 28.9779 22.1294 28.9462C22.12 28.9186 22.1104 28.891 22.1006 28.8635C22.0743 28.7896 22.0139 28.6504 21.8352 28.7676C21.7472 28.8249 21.6269 28.833 21.4898 28.8421C21.4232 28.8465 21.3527 28.8512 21.2799 28.862C21.5386 28.4104 21.6624 28.0318 21.2893 27.7463C21.1608 27.7877 21.0315 27.8207 20.9052 27.8529C20.6356 27.9217 20.3793 27.9871 20.1711 28.1242C19.9706 28.2561 19.752 28.3628 19.5333 28.4695C19.0655 28.6979 18.5971 28.9265 18.3031 29.4026C17.2654 29.8978 16.6701 30.7999 16.0726 31.7054L16.0724 31.7055L16.0092 31.8013L15.9397 31.9062L15.9211 31.9342C15.6878 32.2158 15.6647 32.6151 15.864 32.9217C15.8686 32.9297 15.8734 32.9377 15.8784 32.9459L15.8903 32.9654C15.9678 33.0911 16.0616 33.2434 15.8636 33.4379C15.8024 33.5322 15.7867 33.6488 15.8207 33.7558C15.8547 33.8629 15.9349 33.9494 16.0396 33.9918C16.3176 34.0833 16.52 34.2899 16.7232 34.4973C16.985 34.7646 17.2481 35.0331 17.6758 35.0581ZM58.4353 95.1868L58.9772 95.2948C58.9583 95.3182 58.943 95.3409 58.9295 95.361C58.9047 95.3978 58.8857 95.4261 58.8601 95.4349C58.6942 95.4919 58.5299 95.5534 58.3657 95.6149L58.3656 95.6149L58.3655 95.615L58.3654 95.615L58.3653 95.6151L58.3652 95.6151L58.3651 95.6152L58.3649 95.6152L58.3647 95.6153L58.3645 95.6153L58.3644 95.6154L58.3642 95.6155L58.364 95.6155L58.3639 95.6156L58.3637 95.6156L58.3636 95.6157L58.3636 95.6157C57.9224 95.7809 57.4812 95.946 57.0096 96.0243L56.942 96.0357C56.5587 96.1009 56.1938 96.1629 55.9176 95.7806C55.8417 95.6756 55.7033 95.6446 55.5649 95.6137C55.3406 95.5635 55.1162 95.5134 55.1576 95.1478C54.732 94.8508 54.7875 94.4199 54.8413 94.0025L54.8455 93.9702C54.5568 93.8793 54.2746 93.7689 54.0009 93.6398C53.7126 93.4812 53.6538 93.0219 53.8207 92.542C53.8363 92.4975 53.8645 92.4543 53.8922 92.4117C53.9326 92.3498 53.972 92.2893 53.97 92.2285L53.9693 92.2071C53.9443 91.4354 53.9443 91.4337 54.5833 91.1385C54.8965 90.9728 55.2189 90.8248 55.5489 90.6952C55.9339 90.5801 56.2496 90.3045 56.4139 89.9398C56.6893 89.3768 57.2385 88.9958 57.8654 88.9331C58.4291 88.871 58.9273 89.1591 59.3029 89.6771L59.0068 89.8777C58.7604 90.0446 58.4947 90.2246 58.1613 90.4506C58.3139 90.459 58.45 90.4659 58.5751 90.4723C58.8282 90.4852 59.0359 90.4958 59.2433 90.5116C59.4904 90.5303 59.4981 90.5525 59.589 90.8135C59.6121 90.8799 59.6406 90.9617 59.6797 91.0628C59.7265 91.1833 59.7322 91.3196 59.7379 91.456C59.7491 91.7211 59.7602 91.9862 60.0725 92.1354L60.0551 93.1641C60.0453 93.7977 59.9451 94.3547 59.2218 94.6105C59.025 94.6793 58.8565 94.8272 58.6823 94.9801L58.6823 94.9801L58.6822 94.9801L58.6822 94.9802L58.6821 94.9802C58.6022 95.0504 58.521 95.1217 58.4353 95.1868ZM60.1763 0.370813C59.5839 0.396069 59.0819 0.81192 58.9502 1.38646L59.7361 1.76265C59.2144 1.894 58.8149 2.09534 58.7168 2.68855C58.8947 2.78597 59.0675 2.89233 59.2346 3.00721C59.2771 3.0391 59.3142 3.08433 59.3508 3.12913C59.4542 3.25539 59.5547 3.37822 59.7681 3.18967L59.694 3.75452C59.9813 3.90585 60.3652 4.10838 60.7249 4.29826C60.7067 4.35632 60.6887 4.41315 60.6709 4.4691L60.6706 4.4701L60.6705 4.47052L60.6704 4.4707L60.6704 4.47081C60.6134 4.65008 60.5593 4.82035 60.5153 4.99309C60.5065 5.02346 60.5873 5.11167 60.6266 5.1113C60.7118 5.11013 60.85 5.09022 60.87 5.03978C60.8902 4.98927 60.889 4.92622 60.8879 4.86522C60.8865 4.79173 60.8852 4.72123 60.9213 4.67926C60.9617 4.6318 61.0489 4.62373 61.1676 4.61273C61.2295 4.60701 61.2999 4.60049 61.3767 4.58721L61.0159 4.94942L61.6638 4.98538L61.6639 4.98539C62.4446 5.02889 63.1858 5.07019 63.9272 5.10476C63.9719 5.10678 64.0166 5.08136 64.0622 5.05539C64.0976 5.03521 64.1337 5.0147 64.1707 5.0065C64.3755 4.96115 64.5726 4.87809 64.7658 4.79666C65.1469 4.63606 65.513 4.48176 65.8936 4.63539C66.4063 4.47948 66.4552 4.11736 66.5012 3.77693C66.5314 3.55363 66.5602 3.33966 66.7179 3.19932C66.6611 3.07497 66.592 2.95434 66.5247 2.83675C66.3797 2.58372 66.2428 2.34479 66.2542 2.11322C66.2667 1.85935 66.1455 1.66715 66.0268 1.47869C65.9057 1.28656 65.7871 1.0983 65.8149 0.852543C65.8221 0.789486 65.6428 0.645087 65.5448 0.641248C65.3686 0.634214 65.2128 0.570121 65.0553 0.505283C64.8795 0.432944 64.7015 0.359677 64.4902 0.363686C63.6625 0.381006 62.8345 0.336429 62.0134 0.230333C61.5774 0.172792 61.1571 0.235561 60.7396 0.297893C60.5516 0.325966 60.3642 0.353949 60.1763 0.370813ZM11.1965 68.8125C11.2028 68.7369 11.2119 68.6622 11.2208 68.5888C11.2699 68.1858 11.314 67.824 10.862 67.5976C11.4153 67.2265 11.7951 67.2 12.1949 67.631C12.2965 67.7407 12.4087 67.8378 12.5214 67.9355L12.5215 67.9356C12.7147 68.103 12.9096 68.2718 13.056 68.5075C13.1734 68.6961 13.3835 68.8233 13.5969 68.9525C13.7531 69.047 13.911 69.1427 14.0358 69.2643C14.193 69.4175 14.3035 69.618 14.414 69.8185L14.4141 69.8186C14.4633 69.908 14.5126 69.9973 14.566 70.0825L14.238 70.3801L13.9441 69.9169L13.8268 69.96L13.8967 70.6417C13.8689 70.6579 13.8295 70.6743 13.7852 70.6927C13.6678 70.7416 13.5153 70.805 13.4475 70.9186C12.8875 71.8585 12.0073 72.4293 11.1063 72.9693C10.931 73.0744 10.7289 73.1335 10.5259 73.1928C10.3863 73.2335 10.2464 73.2744 10.1145 73.3305L9.98604 73.3853C9.29526 73.6802 9.12502 73.7529 8.4621 73.6061C7.95476 73.4938 7.41424 73.3705 7.0185 72.9477C6.86642 72.7632 6.65733 72.6336 6.4237 72.5793C5.89289 72.5291 5.82371 72.2338 5.87485 71.8083C5.88804 71.6867 5.88155 71.5638 5.85562 71.4443C5.69495 70.6878 5.71995 70.6121 6.31528 70.2722C7.0491 69.853 7.85636 69.6377 8.66215 69.4228L8.66224 69.4227L8.66301 69.4225L8.66378 69.4223L8.66455 69.4221C8.82595 69.3791 8.98729 69.336 9.14797 69.2914C9.62046 69.1598 10.1003 69.0548 10.5739 68.9511C10.783 68.9054 10.9909 68.8599 11.1965 68.8125ZM22.4858 57.0888L22.4212 57.1905C22.3929 57.235 22.3644 57.2795 22.3357 57.3239C22.6593 57.4503 22.9143 57.6828 22.7124 57.932C22.4226 58.2872 22.6797 58.3611 22.8926 58.4183C22.9341 58.4294 22.9778 58.4372 23.0212 58.445C23.171 58.4717 23.3177 58.4979 23.3598 58.657C23.4253 58.9051 23.6073 59.0349 23.7869 59.1631L23.787 59.1632C23.8643 59.2183 23.9412 59.2732 24.0081 59.3371C24.1884 59.5089 24.5003 59.6854 24.7158 59.6474C25.0809 59.5659 25.4234 59.4052 25.7188 59.1769C25.8967 59.048 26.045 58.8803 26.1938 58.7121L26.1938 58.7121L26.1939 58.712L26.1939 58.712L26.194 58.712L26.194 58.7119L26.194 58.7119L26.1941 58.7119L26.1941 58.7118L26.1941 58.7118L26.1942 58.7118L26.1942 58.7117L26.1942 58.7117L26.1943 58.7117L26.1943 58.7116C26.2923 58.6009 26.3905 58.4899 26.4973 58.3897C26.6326 58.2625 26.7729 58.14 26.9132 58.0175L26.9132 58.0175L26.9133 58.0174L26.9133 58.0174L26.9133 58.0174L26.9134 58.0173L26.9134 58.0173L26.9134 58.0173L26.9135 58.0172L26.9135 58.0172L26.9135 58.0172L26.9136 58.0171L26.9136 58.0171L26.9137 58.0171L26.9137 58.017C27.3122 57.6689 27.711 57.3206 27.9975 56.8661C28.1233 56.6664 28.2731 56.4819 28.4229 56.2975C28.7043 55.9511 28.9855 55.6048 29.1069 55.1579C29.1946 54.7119 29.4263 54.3065 29.7668 54.0033C30.1581 53.6764 30.1155 53.4073 29.8073 52.9122C29.7702 52.8526 29.7337 52.7794 29.6969 52.7055C29.6104 52.532 29.5225 52.3556 29.4229 52.348C29.1641 52.3282 29.1697 52.1773 29.1753 52.027C29.1805 51.8887 29.1857 51.7508 28.9848 51.7159C28.0031 52.0835 27.1426 52.7434 26.2868 53.3998C26.1888 53.4749 26.091 53.5499 25.993 53.6245C25.3828 54.089 24.8168 54.6108 24.2507 55.1326L24.2505 55.1328L24.2503 55.1331L24.2501 55.1333L24.2498 55.1335L24.2496 55.1337L24.2494 55.1339L24.2491 55.1341L24.2489 55.1343L24.2487 55.1345L24.2485 55.1347L24.2482 55.1349L24.248 55.1351L24.2478 55.1353L24.2475 55.1355C23.9729 55.3887 23.6982 55.642 23.4184 55.8886C23.0291 56.232 22.7597 56.6569 22.4858 57.0888ZM27.9226 93.9504L27.9227 93.9504L27.9543 93.9346C28.6887 93.563 29.4487 93.2435 30.2287 92.9786C30.3982 92.9221 30.5663 92.8549 30.7355 92.7872C31.3426 92.5444 31.9624 92.2966 32.7015 92.521C32.4308 92.8652 32.0514 92.9999 31.6582 93.1395C31.3002 93.2667 30.9307 93.3979 30.6214 93.695C31.1736 93.6571 31.662 93.4939 32.1696 93.3243C32.5592 93.1941 32.9601 93.0602 33.4098 92.9763L33.0315 93.5802L33.5408 93.6998L33.6633 94.6107C33.621 94.6339 33.5728 94.659 33.5209 94.6861C33.3926 94.7531 33.2414 94.8321 33.0976 94.9226C32.317 95.4141 32.314 95.4213 31.9212 96.3544L31.9114 96.3776C31.8616 96.4842 31.8003 96.585 31.7284 96.6783C31.2066 97.4073 30.6273 98.0654 29.7695 98.4351C29.3841 98.6092 28.9683 98.7069 28.5452 98.7228C28.4562 98.7303 28.3722 98.7669 28.3063 98.8268C28.2497 98.885 28.1665 98.9093 28.0872 98.8906C28.008 98.872 27.9444 98.8132 27.92 98.736C27.799 98.4929 27.6026 98.3198 27.4065 98.147C27.2479 98.0073 27.0896 97.8677 26.9715 97.6915C26.8575 97.5454 26.6855 97.4554 26.4998 97.4449C26.2288 97.3898 25.9046 96.8379 25.9755 96.5933C25.9902 96.5428 26.0322 96.4998 26.0743 96.4567C26.1583 96.3707 26.2427 96.2843 26.111 96.1376C25.9984 96.0267 25.8788 95.9231 25.7528 95.8276C26.2539 94.7843 27.0975 94.3628 27.9226 93.9504ZM49.6311 65.7423L49.6956 66.3265C49.8969 66.4601 50.1057 66.4207 50.3157 66.3811C50.5055 66.3452 50.6964 66.3092 50.8838 66.4007C50.9866 66.4196 51.089 66.3656 51.1307 66.2703C51.1725 66.175 51.1427 66.0637 51.0588 66.0015C51.0328 65.9727 51.0671 65.8901 51.1013 65.8075C51.117 65.7695 51.1328 65.7315 51.1427 65.6989C51.1692 65.7083 51.2031 65.7178 51.2371 65.7273C51.3099 65.7477 51.3826 65.7681 51.3824 65.7874C51.3747 66.2931 51.8057 66.1663 51.9894 66.1075C52.1435 66.0583 52.2989 66.0116 52.4546 65.9649C53.0896 65.7741 53.728 65.5823 54.2886 65.2189L54.2961 65.214C54.5872 65.0253 54.9578 64.785 54.6183 64.3259C54.6016 64.3019 54.622 64.2308 54.6466 64.1972C54.9179 63.8277 54.7824 63.5838 54.4108 63.4033C54.0864 63.2456 54.2463 63.1047 54.3714 62.9944L54.393 62.9753L54.0059 62.4311L53.1793 62.6003C53.2439 62.5015 53.3378 62.4415 53.4298 62.3827C53.5872 62.2822 53.7389 62.1853 53.7284 61.9041L53.6285 61.8389C53.5301 61.7748 53.4202 61.7032 53.3113 61.6302C53.259 61.5949 53.1949 61.5615 53.1308 61.528C52.9888 61.4539 52.8466 61.3797 52.8314 61.2848C52.7684 60.8917 52.5536 60.9706 52.3596 61.0418C52.3343 61.0511 52.3094 61.0602 52.2852 61.0682C52.0068 61.1596 51.7328 61.2642 51.4587 61.3688L51.4586 61.3689C51.2659 61.4425 51.0732 61.516 50.879 61.585C50.7589 61.615 50.6361 61.6329 50.5124 61.6382L50.4711 61.4817C51.1227 61.2291 51.7743 60.9766 52.5062 60.693C51.9304 60.5231 51.5252 60.6735 51.0851 60.8426C50.39 61.112 49.733 61.4695 49.1301 61.9063C48.3648 62.4571 47.7178 63.1325 47.8574 64.2076C47.8616 64.2955 47.8575 64.3835 47.8451 64.4707L49.1799 65.9517L49.6311 65.7423ZM70.258 64.0132L69.8415 64.3837L70.1153 64.4307L70.5727 64.5091C70.5907 64.6264 70.6106 64.7449 70.6306 64.8642C70.6781 65.1469 70.7264 65.4349 70.7532 65.7249C70.7761 65.9769 70.7612 66.2309 70.7091 66.4786C70.6925 66.5571 70.622 66.573 70.5421 66.591C70.432 66.6159 70.3042 66.6447 70.2751 66.8467C70.2486 67.0334 69.9715 67.1701 69.719 67.2948C69.6667 67.3206 69.6154 67.3459 69.5677 67.371C69.4949 67.4093 69.3977 67.4122 69.2993 67.4153C69.0917 67.4216 68.879 67.4281 68.8797 67.7664L67.9469 67.7667C67.9169 67.7668 67.8867 67.7718 67.8565 67.7746L66.36 69.1067C66.3623 69.2616 66.3522 69.4165 66.3298 69.5699C66.279 69.8031 66.0302 70.044 65.8911 69.9151C65.7257 69.7618 65.5768 69.8254 65.4353 69.8859C65.3126 69.9383 65.1955 69.9883 65.0781 69.8924C64.897 69.1463 64.8854 68.9137 65.0233 68.3227L64.0337 68.7128C64.0078 68.6828 63.9705 68.6497 63.9309 68.6145C63.8374 68.5315 63.7317 68.4376 63.7372 68.3505C63.7475 68.1843 63.7487 68.0157 63.7499 67.8468C63.7544 67.2219 63.7588 66.5934 64.2287 66.069C64.3706 65.8722 64.5336 65.6913 64.715 65.5296C65.0917 65.2631 65.4877 65.0233 65.8833 64.7838L65.8834 64.7837L65.8835 64.7836L65.8836 64.7836L65.8838 64.7835C65.9509 64.7428 66.018 64.7022 66.0849 64.6615C66.2166 64.5814 66.353 64.509 66.4893 64.4367L66.4895 64.4366L66.4896 64.4366L66.4897 64.4365L66.4898 64.4364L66.4899 64.4364L66.49 64.4363L66.4901 64.4363L66.4902 64.4362L66.4904 64.4361L66.4905 64.4361L66.4906 64.436C66.5901 64.3832 66.6895 64.3305 66.7872 64.2747C66.9232 64.1972 67.0786 64.1625 67.2341 64.1277C67.4896 64.0706 67.7451 64.0135 67.9137 63.7665C68.2329 63.8318 68.502 63.7193 68.777 63.6044L68.777 63.6043C68.8614 63.5691 68.9462 63.5336 69.0333 63.5029C69.2631 63.403 69.524 63.4011 69.7554 63.4975C69.9868 63.5939 70.1684 63.7803 70.258 64.0132ZM85.9755 36.3857L86.0237 35.5098C86.1183 34.9407 86.0801 34.3576 85.912 33.8054C85.8413 33.5691 85.7088 33.3583 85.5752 33.1459C85.4395 32.9299 85.3027 32.7123 85.2287 32.4645C85.2122 32.4086 85.0776 32.3547 84.999 32.356C84.756 32.358 84.5136 32.3773 84.2734 32.4137C83.8255 32.4849 83.4618 32.723 83.097 32.9618L83.0969 32.9618L83.0969 32.9619L83.0969 32.9619L83.0969 32.9619L83.0969 32.9619L83.0969 32.9619L83.0968 32.9619L83.0968 32.9619L83.0968 32.9619L83.0968 32.9619C82.9872 33.0337 82.8775 33.1055 82.7654 33.1728C81.8086 33.7484 81.0756 34.4591 81.0327 35.6581C81.0352 35.7478 81.0045 35.8354 80.9465 35.9042C80.6862 36.1201 80.7886 36.3116 80.8905 36.5023C80.9462 36.6065 81.0017 36.7105 80.9979 36.818C81.3887 37.0951 81.5742 37.515 81.7551 37.9245C81.8192 38.0697 81.8828 38.2136 81.9547 38.3493C82.1994 38.8111 82.476 38.9538 82.8763 38.8806C82.9558 38.8661 83.0361 38.8524 83.1165 38.8388C83.7463 38.732 84.3891 38.623 84.8254 38.0551C84.8841 37.9792 84.9642 37.919 85.0445 37.8587C85.2128 37.7324 85.3819 37.6055 85.3564 37.3317C85.3673 37.2492 85.4204 37.1783 85.4968 37.1442C85.9468 37.0984 85.959 36.7907 85.9712 36.4813C85.9725 36.4494 85.9737 36.4174 85.9755 36.3857ZM39.7966 31.4368L39.6778 31.503L39.0773 31.8376C39.2035 31.8616 39.2978 31.8798 39.3725 31.8942L39.3733 31.8944L39.3749 31.8947L39.3749 31.8947C39.4945 31.9178 39.5637 31.9312 39.6334 31.9429L39.6347 31.9431C39.8067 31.9717 39.8997 31.9871 39.9522 32.0416C40.0139 32.1057 40.0194 32.2239 40.0315 32.4813L40.0315 32.4826C40.0323 32.4978 40.032 32.515 40.0316 32.5326L40.0316 32.5327L40.0316 32.5327L40.0316 32.5327L40.0316 32.5328C40.0307 32.5845 40.0297 32.6394 40.054 32.6566C40.3588 32.8536 40.4795 33.2383 40.3412 33.5723C40.2209 33.9654 40.0234 34.331 39.7604 34.6479C38.6987 35.7686 37.3242 36.3864 35.8768 36.8453C35.7078 36.899 35.5126 36.8711 35.3187 36.8433C35.2295 36.8306 35.1406 36.8178 35.0547 36.8131L35.115 36.4531C34.7713 36.458 34.5221 36.3671 34.4627 35.9648C34.4182 35.8165 34.3028 35.6996 34.1544 35.6526C33.9105 35.6152 33.891 35.4552 33.8718 35.2982C33.8587 35.1912 33.8457 35.0856 33.7621 35.0212C33.9696 34.907 33.9431 34.7314 33.9163 34.5547C33.893 34.4007 33.8696 34.2458 34.001 34.1298C34.0959 34.0462 34.1843 33.9508 34.2723 33.8557L34.2724 33.8556C34.4358 33.6792 34.5982 33.5038 34.8002 33.4062C35.479 33.0571 36.1938 32.782 36.9321 32.5855C37.2623 32.5307 37.5559 32.3454 37.7462 32.0718C38.0204 31.6307 38.428 31.2872 38.9107 31.0904L38.9272 31.0839C39.3313 30.9253 39.3343 30.9241 39.7966 31.4368ZM50.2657 49.859C50.1524 49.8351 50.0365 49.8261 49.921 49.8322C49.6575 49.997 49.4236 50.1824 49.1943 50.3642L49.1942 50.3643L49.194 50.3644L49.194 50.3644L49.194 50.3645L49.1939 50.3645L49.1939 50.3645C49.0849 50.451 48.9769 50.5366 48.8673 50.6187C48.1861 51.1257 47.4874 51.648 47.0949 52.4791C46.8331 53.0342 46.8727 53.5641 47.2547 53.8833C47.3641 53.9748 47.4402 54.1016 47.516 54.2278C47.6515 54.4536 47.7859 54.6776 48.108 54.6939C48.1534 55.217 48.5902 55.1524 48.8678 55.0872C49.6444 54.9053 50.4309 54.7009 51.0726 54.1896C51.1907 54.0955 51.2896 53.978 51.3886 53.8603C51.4801 53.7515 51.5717 53.6427 51.6788 53.5521C51.8556 53.4024 52.0502 53.2733 52.2603 53.134L52.2604 53.134C52.3557 53.0707 52.4543 53.0054 52.5558 52.9351L52.3617 51.5257L52.1285 51.4743L52.1254 51.4736C52.0077 51.4476 51.8882 51.4212 51.7435 51.3897L52.6671 50.3829C52.6017 50.3063 52.5255 50.2326 52.4536 50.1631C52.3073 50.0218 52.1791 49.8979 52.1976 49.8018C52.2273 49.6458 52.1902 49.513 52.1531 49.3801C52.1168 49.2498 52.0804 49.1194 52.1071 48.967C51.9918 49.0439 51.9648 49.1778 51.9388 49.3068C51.8986 49.5067 51.8607 49.6951 51.5001 49.6421L51.7161 49.2097C51.2732 49.0356 51.0808 49.3212 50.8809 49.6178C50.8613 49.647 50.8415 49.6763 50.8214 49.7053C50.9908 49.6658 51.1603 49.6273 51.3704 49.5793C51.3531 49.6791 51.3188 49.7753 51.2691 49.8637C51.1894 49.9566 51.087 50.0277 50.9717 50.0701C50.9402 50.0798 50.8999 50.0526 50.8572 50.0238C50.8182 49.9975 50.7771 49.9697 50.7388 49.9676C50.6958 49.9657 50.6504 49.9854 50.6059 50.0046C50.5568 50.0259 50.5087 50.0467 50.4658 50.0377C50.4272 50.0297 50.396 49.9896 50.3645 49.949C50.3342 49.91 50.3035 49.8706 50.2657 49.859ZM36.6781 64.7867L36.491 65.2479C36.9241 65.2907 37.2021 65.0728 37.4841 64.852C37.7237 64.6643 37.966 64.4744 38.3087 64.4404C38.2547 64.5781 38.1853 64.7093 38.1019 64.8316C37.9403 64.994 37.7703 65.148 37.5926 65.293C37.883 65.2901 38.1628 65.1846 38.3821 64.9954C38.7071 65.2939 38.8499 65.4251 38.9072 65.5865C38.9521 65.713 38.9445 65.8581 38.931 66.1169C38.8142 66.209 38.687 66.2961 38.5586 66.3841C38.2637 66.586 37.9629 66.792 37.7693 67.0714C37.5825 67.3409 37.3285 67.4865 37.0762 67.6312C36.914 67.7242 36.7525 67.8168 36.6102 67.9416C36.2327 68.2303 35.8139 68.4612 35.3676 68.6266C35.1271 68.7472 34.8562 68.7948 34.5886 68.7633C34.2843 68.6977 33.8402 68.5428 33.7648 68.3223C33.6782 68.0691 33.5271 68.0244 33.372 67.9785C33.3047 67.9586 33.2367 67.9385 33.1729 67.901C32.8848 67.7317 32.6078 67.5063 32.5654 67.1186C32.5563 67.0364 32.5298 66.9476 32.5037 66.8602C32.4578 66.7068 32.4132 66.5575 32.4665 66.4554C32.659 66.0517 32.9278 65.6887 33.2584 65.3861C33.8971 64.8669 34.5688 64.3892 35.2694 63.9559C35.3848 63.8825 35.5516 63.8891 35.748 63.8969C35.8478 63.9008 35.9552 63.9051 36.0673 63.8993L35.7582 64.2403C36.0844 64.2113 36.2573 64.3927 36.4205 64.5639L36.4205 64.5639C36.5027 64.6502 36.5825 64.7339 36.6781 64.7867ZM2.24447 57.3779L1.93729 57.8686C2.2613 57.8338 2.58256 57.7772 2.89883 57.6992C3.02791 57.6563 3.21529 57.4894 3.20793 57.3914C3.19174 57.1763 3.31797 57.0535 3.4356 56.9392C3.51162 56.8653 3.58404 56.7949 3.61212 56.7053C3.68209 56.4784 3.83139 56.3561 3.97975 56.2345C4.03777 56.187 4.09564 56.1396 4.14857 56.0861C4.25588 55.9777 4.38039 55.8808 4.50422 55.7844C4.71406 55.621 4.92193 55.4591 5.04079 55.2459C5.15919 55.0334 5.32365 54.8845 5.48608 54.7376C5.59105 54.6426 5.69517 54.5484 5.78546 54.4382C5.9449 54.2437 6.10074 54.0463 6.25616 53.8493C6.32492 53.7622 6.39361 53.6752 6.4625 53.5885L6.51912 52.561C6.16728 52.6437 6.1769 52.4636 6.18659 52.2819C6.19418 52.1398 6.20181 51.9968 6.03675 51.9778C5.90661 51.9596 5.81529 52.0516 5.72308 52.1444C5.5947 52.2738 5.46458 52.4049 5.22552 52.2427C5.27193 52.1945 5.32365 52.1489 5.37498 52.1036C5.5783 51.9241 5.77527 51.7502 5.61009 51.4458C5.05711 51.4416 4.70011 51.7764 4.34286 52.1115L4.29145 52.1596C4.2259 52.2285 4.15432 52.2915 4.07756 52.3478C3.19413 52.9083 2.35396 53.5335 1.56401 54.2181C1.47222 54.2985 1.36126 54.3569 1.25014 54.4153C1.14708 54.4695 1.0439 54.5238 0.955798 54.5958L0.91929 54.6256C0.594706 54.8902 0.258935 55.164 0.300581 55.6555C0.502719 55.6921 0.663769 55.5985 0.821724 55.5067C1.0123 55.3959 1.19837 55.2877 1.44665 55.4139L0.42695 56.3213L0.693013 56.8406L1.75755 56.453C1.44357 57.0669 1.48106 57.1211 2.24447 57.3779ZM66.1511 54.8676C66.1375 54.979 66.147 55.0797 66.156 55.1756C66.1734 55.3597 66.1891 55.5257 66.0355 55.7141L65.9244 55.3251C65.8191 55.3497 65.7139 55.3753 65.6086 55.4009L65.6079 55.4011C65.3246 55.4699 65.0411 55.5389 64.7554 55.5899C64.6546 55.6079 64.4612 55.5453 64.4358 55.4746C64.3534 55.2463 64.1801 55.1045 64.0086 54.9642C63.8873 54.8649 63.7668 54.7663 63.68 54.6383C63.5959 54.4823 63.553 54.3076 63.5553 54.1307C63.5529 54.0874 63.586 54.0421 63.619 53.9969C63.6519 53.9519 63.6846 53.9071 63.6824 53.8643C63.6528 53.7493 63.6021 53.6406 63.5331 53.5437L63.5755 53.5343C64.1223 53.4132 64.1505 53.4069 64.3995 52.7935C64.4943 52.5597 64.6784 52.4485 64.865 52.3357C64.9789 52.2669 65.0937 52.1976 65.1898 52.0994L64.9224 51.9562L64.8018 51.8916C64.8363 51.8625 64.8701 51.8265 64.9032 51.7912L64.9032 51.7912L64.9032 51.7912C64.9723 51.7176 65.0381 51.6474 65.0996 51.6511C66.2366 51.7188 66.2625 51.7193 66.9724 51.2406C66.6728 51.0479 66.4347 51.1672 66.1826 51.2934C66.0156 51.377 65.8424 51.4637 65.6412 51.4648C65.6507 51.4201 65.6566 51.3681 65.6624 51.3174C65.6743 51.2126 65.6855 51.114 65.7264 51.0999C65.8161 51.0688 65.9052 51.035 65.9943 51.0012C66.5069 50.8064 67.0151 50.6134 67.6036 50.969C67.6307 50.9854 67.6562 51.0002 67.68 51.014C67.8452 51.1097 67.9316 51.1597 67.9226 51.3906C67.9337 51.5665 67.9904 51.7366 68.0873 51.8842C68.2419 52.1595 68.4074 52.4284 68.5807 52.7099C68.6523 52.8263 68.7253 52.9448 68.7994 53.0668L68.5557 53.2096C68.4546 53.3384 68.4996 53.4776 68.5381 53.5969C68.5909 53.7601 68.6315 53.8859 68.2694 53.8967C68.2007 53.8988 68.2181 53.962 68.2388 54.0374C68.2718 54.1577 68.3134 54.3091 68.0285 54.2934C67.9041 54.2866 67.7711 54.437 67.643 54.5817L67.643 54.5818L67.643 54.5818L67.6428 54.582C67.5862 54.646 67.5305 54.7089 67.477 54.7566C67.3267 54.6897 67.1835 54.6254 67.0404 54.5617C67.0051 54.6065 66.9699 54.6513 66.9348 54.6962C67.0881 54.7875 67.2414 54.8789 67.4343 54.9936L66.9191 55.2584L66.7344 55.3533C66.5544 55.2038 66.3527 55.0357 66.1511 54.8676ZM40.164 20.8596L39.3909 21.4027C39.4599 21.5182 39.5419 21.6256 39.6353 21.7227C39.7379 21.7791 39.8438 21.8294 39.9523 21.8735L39.9686 21.8823C40.0643 21.9336 40.2166 22.0152 40.2084 22.0425C40.1433 22.2577 40.2672 22.4146 40.3908 22.5711C40.5234 22.7389 40.6555 22.9062 40.554 23.1443C40.6253 23.1817 40.6986 23.2152 40.7736 23.2449C40.873 23.0613 41.0081 23.1043 41.1416 23.1468C41.2118 23.1692 41.2816 23.1914 41.3456 23.1805C41.6213 23.1338 41.8467 23.0011 42.0694 22.87C42.2269 22.7772 42.3831 22.6852 42.555 22.6249C43.2999 22.3686 43.9753 21.9452 44.5288 21.3875L44.3614 19.4327L43.4319 19.3815C43.4931 19.2362 43.6163 19.1396 43.7357 19.0459C43.9072 18.9115 44.0709 18.7831 44.0329 18.5254C43.5142 18.3827 43.0062 18.3718 42.5865 18.6377C42.2392 18.8577 41.8761 19.0478 41.5134 19.2378L41.5133 19.2378C41.1635 19.421 40.8142 19.604 40.4798 19.8133C40.1491 19.9979 39.8738 20.2663 39.6817 20.5913L40.164 20.8596ZM26.686 41.7822L25.7915 42.1098L26.2466 42.3106C26.2429 42.3159 26.2393 42.3218 26.2357 42.3279C26.2306 42.3367 26.2256 42.346 26.2206 42.3554L26.2206 42.3554L26.2206 42.3555C26.2027 42.3892 26.185 42.4224 26.1616 42.4273C25.8354 42.4917 25.5316 42.6391 25.28 42.8551C25.1139 42.9824 24.931 43.0863 24.7364 43.1639C24.4014 43.2921 24.1528 43.5779 24.0737 43.9259L24.3771 44.0955L23.9567 44.5944C23.9097 44.5919 23.8732 44.5918 23.8457 44.5917C23.8035 44.5917 23.7824 44.5916 23.7772 44.5826C23.6959 44.4422 23.6188 44.2995 23.5456 44.164L23.5456 44.1639L23.5455 44.1638L23.5454 44.1637L23.4879 44.0573C23.2248 44.0892 22.9859 44.1183 22.6287 44.1614L22.9904 43.5156C22.7458 43.3776 22.5002 43.2391 22.2359 43.0902L22.2085 42.6281L21.7843 42.6047C21.4512 42.1084 21.521 41.7208 21.923 41.3284C22.0891 41.1663 22.2465 40.9954 22.406 40.8221C22.6671 40.5386 22.934 40.2488 23.2546 39.9805L23.6108 40.5858C24.0078 40.4968 24.3812 40.3251 24.7065 40.0821C24.9515 39.9064 25.2416 39.7931 25.5269 39.6816L25.527 39.6816L25.5271 39.6816L25.5272 39.6815C25.651 39.6332 25.7739 39.5852 25.8917 39.5326C26.1523 39.7675 26.0396 39.9451 25.9208 40.1323C25.8894 40.1818 25.8575 40.232 25.832 40.2841C25.8628 40.2893 25.894 40.298 25.9245 40.3065L25.9246 40.3065L25.9247 40.3066L25.9248 40.3066C25.9893 40.3245 26.0508 40.3416 26.0988 40.3236C26.5401 40.1572 26.7481 40.2511 26.7447 40.6554C26.7422 40.9186 26.7247 41.1816 26.7074 41.4409C26.6998 41.5555 26.6922 41.6694 26.686 41.7822ZM23.7025 14.9834L24.3988 14.5693C24.3861 14.5481 24.3739 14.527 24.3618 14.5062L24.3615 14.5057C24.2573 14.3257 24.1655 14.1674 23.8877 14.1251C23.2556 14.0286 22.7056 14.2493 22.1575 14.4691L22.1574 14.4692C22.0164 14.5258 21.8755 14.5823 21.7333 14.6333C21.4481 14.7357 21.3309 15.2059 21.3931 15.5873C21.4143 15.7402 21.4158 15.8952 21.3976 16.0485C21.3372 16.4313 21.5914 16.7935 21.9737 16.8694C22.2418 16.9435 22.4197 17.0193 22.4846 17.3058C22.5241 17.562 22.7614 17.7406 23.0202 17.709C23.0406 17.7087 23.0612 17.7082 23.0819 17.7076L23.0995 17.707C23.3162 17.7005 23.5393 17.6937 23.7029 17.9223C23.8123 17.9883 23.9479 17.9946 24.063 17.9393C24.1155 17.9066 24.1504 17.8325 24.1831 17.763C24.2175 17.6897 24.2495 17.6217 24.2971 17.6132C24.3566 17.6027 24.4227 17.6478 24.4914 17.6946C24.5545 17.7375 24.6196 17.7819 24.6836 17.786C25.1309 17.815 25.3838 17.497 25.5375 17.156C25.5789 17.0647 25.5871 16.9614 25.5955 16.8556C25.6081 16.696 25.6212 16.5307 25.7494 16.3922C25.7611 16.3794 25.6927 16.2973 25.6121 16.2005C25.5479 16.1234 25.4759 16.037 25.4307 15.9691C25.3911 15.8834 25.3631 15.7929 25.3473 15.6999L24.5672 15.6569C24.8156 15.5545 24.9406 15.503 25.0434 15.4608L25.0738 14.909C24.9671 14.9269 24.864 14.9447 24.7635 14.9621L24.7634 14.9621C24.4924 15.0089 24.2399 15.0526 23.9859 15.0859C23.9392 15.092 23.8884 15.0678 23.823 15.0365C23.7877 15.0196 23.7481 15.0006 23.7025 14.9834ZM39.8986 45.9442L39.624 46.7165C39.9245 46.8617 40.2177 46.916 40.5076 46.6604C40.677 46.8673 40.5807 47.0205 40.4807 47.1794C40.412 47.2886 40.3415 47.4005 40.3546 47.5344L40.8602 47.6568C40.991 47.7928 40.9246 47.9119 40.8547 48.0374C40.7855 48.1615 40.7128 48.2919 40.8235 48.4513C40.9605 48.6498 40.8214 48.7469 40.6726 48.8508C40.5746 48.9192 40.4724 48.9906 40.4424 49.0957C40.3681 49.2548 40.2471 49.3877 40.0953 49.477C39.903 49.616 39.6817 49.7005 39.4593 49.7855C39.1503 49.9035 38.8392 50.0224 38.6007 50.2891C38.5351 50.3624 38.3746 50.3518 38.1913 50.3396C38.0998 50.3336 38.0025 50.3271 37.9087 50.3306C38.0585 50.0651 37.9086 49.915 37.7579 49.7641C37.6148 49.6207 37.471 49.4767 37.5827 49.2326C37.508 49.1809 37.4129 49.1559 37.3157 49.1304C37.0903 49.0713 36.8541 49.0093 36.8374 48.6044L37.3547 48.3401L36.8857 48.0848C36.8294 47.7721 37.0896 47.6374 37.2735 47.5422L37.2988 47.5291C37.8971 47.2206 38.4063 46.7656 38.7783 46.207C39.0167 45.8554 39.3835 45.6759 39.8986 45.9442ZM64.6353 41.4688L65.5187 42.7254C65.6155 42.7087 65.7227 42.6997 65.8339 42.6903C66.0935 42.6685 66.3747 42.6448 66.5953 42.5176C67.165 42.2041 67.6821 41.8044 68.1283 41.333C68.6278 40.7782 69.0511 40.1136 68.4057 39.3475C68.3643 39.2983 68.3549 39.2226 68.3444 39.1372C68.3388 39.0928 68.333 39.0457 68.3222 38.9983C68.2358 39.0103 68.1493 39.014 68.0669 39.0175C67.8987 39.0246 67.7475 39.031 67.6495 39.1061C67.5835 39.1566 67.5184 39.2083 67.4535 39.2599C67.067 39.5671 66.6861 39.87 66.1455 39.8813C65.8968 40.1544 65.5692 40.2835 65.2441 40.4115C65.0491 40.4884 64.8549 40.5649 64.6793 40.6719L64.6353 41.4688Z" fill="#171B1B"/>
</svg>
