<?xml version="1.0" standalone="no"?>
<!DOCTYPE svg PUBLIC "-//W3C//DTD SVG 20010904//EN"
 "http://www.w3.org/TR/2001/REC-SVG-20010904/DTD/svg10.dtd">
<svg version="1.0" xmlns="http://www.w3.org/2000/svg"
 width="393.000000pt" height="438.000000pt" viewBox="0 0 393.000000 438.000000"
 preserveAspectRatio="xMidYMid meet">

<g transform="translate(0.000000,438.000000) scale(0.100000,-0.100000)"
fill="#000000" stroke="none">
<path d="M1740 4298 c-52 -5 -146 -20 -209 -34 -800 -179 -1368 -819 -1451
-1633 -6 -66 -10 -545 -10 -1322 l0 -1219 1891 0 1890 0 -4 1273 c-4 1402 0
1321 -68 1577 -135 508 -481 928 -965 1170 -326 163 -683 225 -1074 188z m457
-73 c307 -41 615 -164 852 -342 99 -74 266 -237 348 -338 209 -260 342 -595
373 -945 6 -70 10 -574 10 -1282 l0 -1168 -1820 0 -1820 0 0 1193 c0 982 3
1214 15 1317 33 285 128 542 292 790 89 134 287 340 421 438 372 274 862 398
1329 337z"/>
<path d="M1804 4139 c-209 -19 -417 -77 -611 -169 -513 -244 -833 -673 -940
-1260 -15 -86 -17 -210 -20 -1282 l-4 -1188 1726 0 1726 0 -4 1218 -3 1217
-27 121 c-34 156 -75 271 -147 414 -133 263 -323 479 -560 634 -177 117 -278
165 -465 223 -203 63 -467 91 -671 72z m385 -74 c383 -56 727 -233 986 -507
215 -228 348 -486 416 -813 l24 -110 3 -1163 3 -1162 -1661 0 -1661 0 3 1168
3 1167 28 123 c76 333 213 596 421 807 109 110 243 215 371 288 161 93 436
185 615 206 124 14 335 12 449 -4z"/>
<path d="M1895 3764 c-93 -48 -117 -120 -70 -208 34 -64 33 -86 -4 -86 -109 0
-370 -83 -495 -157 -147 -87 -308 -266 -385 -428 -82 -172 -93 -236 -98 -618
-4 -238 -8 -327 -17 -326 -6 1 -30 1 -53 0 l-43 -1 0 -62 c1 -82 26 -137 76
-169 l39 -24 370 -3 c430 -4 408 1 480 -111 62 -96 74 -142 94 -371 17 -199
17 -206 -1 -229 -11 -14 -18 -40 -18 -67 0 -37 -5 -47 -40 -77 -63 -53 -145
-93 -265 -127 -128 -36 -158 -59 -153 -119 l3 -36 635 0 635 0 3 41 c5 63 -17
81 -128 109 -120 29 -191 61 -257 114 -48 38 -53 45 -53 82 0 24 -9 58 -21 79
l-22 38 17 174 c9 95 26 208 37 251 25 93 80 181 136 220 l40 27 370 4 c408 5
410 5 454 67 17 24 23 50 27 106 5 86 2 91 -63 87 l-45 -2 0 253 c0 292 -11
421 -45 541 -81 277 -303 529 -565 639 -84 36 -249 79 -342 90 -46 6 -57 11
-62 28 -3 13 2 29 14 42 45 48 52 124 17 176 -42 63 -136 88 -202 53z m129
-75 c17 -13 26 -30 26 -49 0 -61 -90 -91 -144 -49 -37 29 -32 66 13 96 42 28
71 29 105 2z m-49 -200 c10 -15 -1 -23 -20 -15 -9 3 -13 10 -10 16 8 13 22 13
30 -1z m160 -89 c164 -24 344 -90 460 -170 181 -124 323 -325 387 -545 22 -76
23 -95 23 -408 l0 -329 -85 0 -85 0 -3 262 -2 262 30 28 30 28 0 120 c0 118
-1 120 -28 150 -16 17 -47 35 -70 41 -29 8 -282 11 -854 9 -758 -3 -816 -4
-841 -21 -45 -29 -60 -63 -67 -151 -8 -99 0 -140 34 -175 l26 -27 -2 -265 -3
-264 -90 0 -90 1 1 289 c0 183 5 316 12 360 36 200 124 368 271 516 199 199
446 296 756 298 66 0 152 -4 190 -9z m652 -621 c15 -5 31 -16 35 -22 12 -18
10 -205 -2 -212 -6 -4 -24 5 -40 19 -70 58 -109 41 -140 -65 -20 -66 -23 -70
-48 -67 -23 3 -30 11 -45 58 -22 69 -52 100 -104 107 -56 7 -97 -31 -115 -107
-12 -49 -16 -55 -41 -58 -38 -5 -53 11 -71 72 -19 63 -42 86 -93 93 -55 7 -86
-20 -107 -97 -20 -70 -44 -90 -80 -66 -14 9 -28 32 -34 59 -23 88 -85 127
-150 93 -26 -13 -35 -28 -50 -79 -13 -45 -25 -65 -42 -74 -35 -17 -54 -2 -79
66 -27 75 -62 105 -111 97 -44 -7 -85 -51 -95 -102 -9 -49 -21 -64 -51 -64
-29 0 -47 27 -68 101 -9 33 -23 60 -33 63 -10 4 -35 -5 -64 -23 -34 -21 -50
-26 -58 -18 -6 6 -11 47 -11 95 0 79 2 85 29 113 l29 29 806 0 c544 0 814 -3
833 -11z m-1261 -303 c26 -74 61 -106 114 -106 54 0 95 38 118 110 13 43 22
56 39 58 25 4 34 -12 53 -85 14 -55 50 -83 106 -83 58 0 98 34 114 97 13 55
26 73 50 73 17 0 27 -18 50 -92 16 -51 52 -78 105 -78 53 0 89 27 105 78 25
80 32 92 55 92 30 0 39 -13 59 -82 20 -70 46 -91 107 -86 50 4 74 30 93 104
15 59 38 69 61 25 13 -26 15 -70 13 -293 l-3 -263 -805 0 -805 0 -3 260 c-2
259 2 305 32 305 6 0 19 -20 29 -44 24 -58 56 -86 106 -93 54 -7 85 14 106 74
29 82 37 94 59 91 16 -2 27 -19 42 -62z m1601 -638 c-3 -26 -15 -51 -31 -67
l-26 -26 -1110 0 -1110 0 -26 26 c-16 16 -28 41 -31 67 l-6 42 1173 0 1173 0
-6 -42z m-907 -155 c0 -2 -16 -25 -35 -52 -76 -106 -98 -185 -128 -479 -8 -73
-17 -135 -20 -139 -4 -3 -42 -8 -86 -11 l-78 -4 -6 48 c-3 27 -11 114 -17 194
-15 196 -46 295 -124 399 -14 19 -26 37 -26 40 0 3 117 6 260 6 143 0 260 -1
260 -2z m-150 -743 c13 -9 13 -11 0 -20 -8 -5 -28 -10 -45 -10 -16 0 -67 -3
-112 -7 -72 -5 -83 -4 -83 10 0 12 16 17 68 22 37 3 74 8 82 9 32 7 76 5 90
-4z m45 -141 c32 -28 74 -61 94 -74 45 -28 151 -66 249 -90 39 -9 72 -21 72
-26 0 -5 -245 -9 -575 -9 -316 0 -575 3 -575 8 0 4 47 20 104 35 128 35 205
71 276 129 76 61 78 62 140 69 141 16 151 14 215 -42z"/>
<path d="M1327 3149 c-75 -64 -137 -146 -137 -180 0 -18 5 -29 14 -29 21 0
227 212 224 230 -6 31 -51 22 -101 -21z"/>
</g>
</svg>
